<svg xmlns="http://www.w3.org/2000/svg" width="86" height="117" viewBox="0 0 86 117"><path d="M82.821 4.011h-79.491a3.188 3.188 0 0 0-3.188 3.188v46.413a3.187 3.187 0 0 0 3.188 3.189h79.492a3.188 3.188 0 0 0 3.189-3.189v-46.413a3.189 3.189 0 0 0-3.19-3.188zm-74.429 33.225h-.226a3.19 3.19 0 0 1-3.189-3.189v-7.283a3.188 3.188 0 0 1 3.189-3.188h.226v13.66zm61.231 15.172h-56.282v-44.006h56.282v44.006zm8.777-17.856c-2.289 0-4.146-1.855-4.146-4.147s1.856-4.147 4.146-4.147a4.146 4.146 0 1 1 0 8.294zm-46.903-34.552h23.157v2.758h-23.157zm15.111 64.861v-2.973h8.046v-2.758h-23.156v2.758h8.045v35.246a6.068 6.068 0 0 0-3.635 5.559v14.307h14.335v-14.307a6.062 6.062 0 0 0-3.636-5.557v-27.99h4.796l5.051 1.213v-6.711l-5.051 1.213h-4.795z" fill="#363636"/></svg>